Patient4_TMGait_0pt7_01_left_29_EMG.mot
version=1
nRows=13
nColumns=33
inDegrees=no
endheader
time	1LAddLong	2LGlutMax	3LGlutMed	4LIliopsoas	5LSemiMemb	6LBicFemLong	7LRecFem	8LVastMed	9LVastLat	10LGasMed	11LTibAnt	12lTibPost	13LPeroneusLong	14LSol	15LExtDigLong	16LFlexDigLong	17RAddLong	18RGlutMax	19RGlutMed	20RIliopsoas	21RSemiMemb	22RBicFemLong	23RRecFem	24RVastMed	25RVastLat	26RGasMed	27RTibAnt	28RTibPost	29RPeroneusLong	30RSol	31RExtDigLong	32RFlexDigLong
33.42	0.003967	0.78354	-0.021515	0.009918	-0.019989	-0.069885	0.19073	0.025177	-0.38284	-0.032959	0.034485	0.00473	0.068207	0.005646	-0.28442	-0.005493	-0.009155	0.002289	0.21927	0.12589	-0.064392	-0.10513	0.047607	-0.085449	0.24185	-0.073853	0.06012	-0.018311	0.23148	-0.15961	-0.002594	-0.005493
33.421	-0.00946	0.75424	-0.012665	0.014648	-0.017242	-0.068054	0.22797	0.023041	-0.31326	-0.024567	0.099792	0.006409	0.049286	0.009003	-0.20691	-0.012054	-0.011597	0.085449	0.83984	0.090179	0.030975	-0.092316	0.025635	-0.19745	0.5658	-0.023499	-0.040894	-0.050507	0.3447	-0.24735	-0.005341	-0.007935
33.422	0.003204	0.74631	-0.011444	0.00885	-0.007019	-0.068665	0.21835	0.012207	-0.20126	-0.004272	0.16937	0.002441	0.001068	-0.001831	-0.12787	-0.011444	-0.010834	0.054779	0.91721	0.075684	0.11246	0.070953	0.13596	-0.11078	0.52643	0.10239	0.022888	-0.038605	0.047302	-0.13977	-0.004883	-0.015106
33.423	0.006104	0.70709	0.001526	0.012054	-0.00946	-0.068512	0.23651	0.003662	-0.11612	0.034027	0.099487	0.010071	-0.000916	-0.030365	0.03006	0.002289	-0.012665	0.037842	0.54428	0.022888	0.050659	0.19104	0.31769	-0.2034	0.25467	0.053101	-0.045929	0.063324	0.88043	0.10162	-0.001373	-0.009003
33.424	0.001068	0.68527	0.001373	-0.013428	-0.014954	-0.044403	0.2269	0.003662	-0.034332	0.023651	-0.005798	0.004883	0.020447	-0.070496	-0.002136	-0.007172	0.003815	-0.11627	0.31448	0.059662	0.024719	0.18234	0.49835	-0.36575	-0.022736	0.019531	-0.048828	0.010223	1.5161	0.14145	0.001068	-0.002594
33.425	0.011597	0.68954	-0.007019	-0.000153	-0.016785	-0.062866	0.20538	0.00946	0.035706	-0.00061	-0.010834	0.007019	0.066986	-0.070801	0.043488	-0.000153	-0.021973	-0.27008	0.44464	0.053253	0.031891	0.1442	0.022736	-0.56869	-0.16861	0.005951	0.074158	-0.012512	0.95444	-0.09079	0.001831	-0.008392
33.426	0.011597	0.7161	-0.019379	0.008545	0.005493	-0.085754	0.19012	0.007629	0.083923	-0.020752	0.067444	0.003662	0.071106	-0.086212	0.13428	-0.000763	-0.023346	-0.34409	-0.16678	-0.032654	0.002441	-0.002441	-0.42099	-0.29144	-0.34653	0.04837	0.14557	-0.012207	-0.15121	0.1268	0.000458	0.005341
33.427	0.012665	0.72601	-0.01297	-0.003204	0.000916	-0.098877	0.17868	0.011597	0.10162	-0.028381	0.098724	0.005188	0.012054	-0.074158	0.45914	-0.001831	0.00061	-0.34378	0.066528	-0.093689	-0.033417	-0.12268	-0.34119	0.02533	-0.63782	0.025482	0.13229	-0.008698	-1.5436	-0.007477	0.000153	-0.001678
33.428	0.004578	0.70602	-0.02182	0.006104	0.000305	-0.11276	0.1532	0.003662	0.11246	-0.028381	0.11078	0.006714	0.011902	-0.063934	0.3569	-0.005188	0.040436	-0.32593	-0.33112	-0.14694	-0.040588	-0.16998	0.11322	0.28442	-0.49835	0.006714	0.17471	-0.00885	-1.2137	-0.093689	0.00412	0.001526
33.429	0.005493	0.6926	-0.015564	-0.001831	-0.014343	-0.079956	0.14908	0.000916	0.14282	-0.040894	0.092468	0.009613	0.01236	-0.039673	0.001678	-0.000763	0.009308	-0.36652	-0.35568	-0.12344	-0.02243	-0.11398	0.22263	0.56534	-0.039825	0.006104	0.074768	-0.004425	1.3078	-0.071106	0.001068	-0.000153
33.43	0.009308	0.6694	-0.01297	-0.008698	-0.011292	-0.040131	0.13702	0.008698	0.14465	-0.032654	0.089417	0.009766	0.054779	-0.025024	-0.041656	-0.003204	0.034485	-0.29785	-0.50018	-0.099487	-0.023041	-0.12253	0.51148	0.31204	-0.000153	0.001678	0.23331	-0.016785	0.34668	0.010376	0.001678	-0.003357
33.431	0.011444	0.6279	-0.019226	0.009155	-0.005035	-0.044861	0.14755	0.010223	0.15289	-0.037994	0.032501	0.005341	0.063934	0.02533	0.081787	0.013275	0.036469	-0.31784	-0.3093	-0.058746	-0.039825	-0.13062	0.65521	-0.007019	-0.00824	0.017242	0.15152	-0.015564	1.158	-0.33569	-0.000458	0.000153
33.432	0.009003	0.58029	-0.011749	0.001678	-0.003052	-0.024414	0.14496	0.014038	0.159	-0.095978	-0.14908	0.004883	0.11002	0.070496	0.063934	0.007935	0.026398	-0.27313	-0.20248	-0.054169	-0.04303	-0.092316	0.43106	-0.1355	0.014954	0.020142	-0.27359	-0.002289	2.7467	-0.34714	-0.005798	0.009613
